<?xml version="1.0" standalone="no"?>
<!DOCTYPE svg PUBLIC "-//W3C//DTD SVG 20010904//EN"
 "http://www.w3.org/TR/2001/REC-SVG-20010904/DTD/svg10.dtd">
<svg version="1.0" xmlns="http://www.w3.org/2000/svg"
 width="3277.000000pt" height="3277.000000pt" viewBox="0 0 3277.000000 3277.000000"
 preserveAspectRatio="xMidYMid meet">
<metadata>
Created by potrace 1.11, written by Peter Selinger 2001-2013
</metadata>
<g transform="translate(0.000000,3277.000000) scale(0.100000,-0.100000)"
fill="#000000" stroke="none">
<path d="M15798 23285 c-2 -1 -66 -5 -143 -9 -77 -3 -153 -8 -170 -10 -16 -2
-66 -7 -110 -11 -44 -3 -91 -8 -105 -10 -14 -2 -52 -6 -85 -10 -33 -3 -71 -8
-85 -10 -42 -8 -83 -14 -135 -20 -27 -4 -57 -8 -65 -10 -8 -2 -31 -7 -50 -10
-19 -3 -46 -8 -60 -10 -14 -3 -36 -7 -50 -10 -63 -12 -94 -18 -220 -47 -74
-16 -139 -31 -145 -32 -5 -1 -19 -5 -30 -9 -11 -3 -31 -8 -45 -11 -116 -21
-687 -206 -805 -260 -16 -8 -55 -24 -85 -36 -30 -12 -68 -28 -85 -35 -16 -7
-68 -30 -115 -50 -307 -134 -700 -352 -1025 -568 -129 -86 -460 -327 -475
-346 -3 -4 -41 -36 -85 -71 -347 -280 -827 -774 -1071 -1101 -10 -15 -46 -62
-79 -105 -180 -237 -382 -555 -548 -859 -83 -152 -257 -511 -257 -529 0 -3
-11 -29 -24 -58 -76 -164 -259 -683 -291 -823 -2 -11 -18 -70 -34 -131 -17
-61 -32 -121 -35 -135 -3 -13 -7 -33 -10 -44 -2 -11 -10 -42 -16 -70 -6 -27
-14 -61 -16 -75 -3 -14 -11 -56 -19 -95 -16 -81 -34 -184 -40 -223 -6 -46 -15
-106 -21 -140 -3 -17 -7 -49 -9 -70 -3 -20 -7 -57 -10 -82 -11 -88 -13 -106
-20 -190 -3 -47 -8 -101 -10 -120 -22 -202 -22 -725 0 -1020 2 -30 6 -93 10
-140 3 -47 8 -92 10 -100 2 -8 7 -44 10 -80 4 -36 9 -72 10 -81 2 -9 6 -40 10
-70 5 -48 11 -86 30 -194 18 -107 58 -305 90 -445 31 -136 110 -412 170 -594
138 -416 379 -948 583 -1285 25 -41 50 -84 56 -95 80 -145 396 -596 543 -775
124 -150 150 -180 282 -325 249 -274 507 -514 806 -752 55 -43 102 -81 105
-85 3 -3 68 -51 145 -106 431 -310 911 -581 1365 -770 58 -24 114 -47 125 -53
44 -20 299 -111 430 -153 181 -59 356 -109 535 -153 42 -10 460 -93 495 -98
22 -4 54 -8 70 -11 38 -6 86 -12 150 -20 28 -3 66 -8 85 -11 19 -3 58 -7 85
-9 28 -3 77 -8 109 -11 264 -26 635 -33 936 -19 169 7 201 9 305 19 33 3 85 8
115 11 30 2 71 7 90 10 19 2 54 7 78 10 77 9 127 16 157 21 17 3 42 7 57 9 56
8 279 50 363 69 6 1 37 8 70 15 33 7 89 21 125 31 36 11 76 21 90 23 14 3 45
11 70 18 25 7 50 13 55 15 55 11 409 125 480 154 11 4 92 36 180 70 362 141
700 309 1065 528 69 42 127 78 130 82 3 4 12 9 20 12 13 5 336 226 365 250 6
5 69 54 140 110 107 83 271 218 321 263 238 215 448 425 624 625 41 47 77 87
81 90 19 18 289 364 351 450 84 118 201 293 242 360 15 25 44 72 65 105 194
309 430 801 578 1205 81 220 195 597 219 720 3 14 12 50 20 82 8 31 23 101 35
155 27 130 25 121 34 178 5 28 9 52 10 55 1 3 5 30 10 60 5 30 9 57 10 60 1 3
5 32 9 65 5 33 10 68 12 79 2 10 6 51 10 90 3 39 8 74 10 77 1 3 6 41 9 85 4
43 8 95 10 114 11 103 19 355 19 585 -1 342 -10 507 -44 790 -18 159 -24 201
-35 265 -2 14 -9 54 -14 90 -6 36 -13 76 -16 90 -3 14 -8 41 -11 60 -9 50 -11
57 -29 140 -9 41 -19 86 -21 100 -42 217 -232 831 -309 997 -8 17 -15 34 -15
37 0 4 -7 23 -17 44 -9 20 -17 39 -18 42 -34 97 -300 649 -335 695 -4 6 -19
30 -32 55 -85 153 -364 589 -417 651 -6 8 -50 66 -98 129 -48 63 -89 117 -92
120 -4 3 -18 21 -33 42 -15 20 -33 42 -41 50 -7 7 -39 45 -71 83 -219 262
-556 597 -836 832 -86 72 -283 227 -354 278 -16 11 -47 34 -70 51 -160 117
-503 332 -716 448 -106 58 -464 236 -474 236 -3 0 -41 16 -83 36 -98 45 -476
192 -538 208 -5 2 -17 6 -25 9 -14 6 -215 68 -235 73 -32 8 -56 15 -105 29
-30 9 -71 20 -90 25 -19 5 -73 18 -120 30 -47 11 -92 22 -100 24 -22 5 -209
44 -245 51 -87 16 -256 44 -295 50 -25 3 -56 8 -70 10 -14 2 -54 7 -90 11 -36
3 -74 8 -85 10 -11 2 -49 6 -85 9 -36 3 -87 7 -115 10 -141 13 -246 17 -517
20 -163 1 -298 1 -300 0z"/>
</g>
</svg>
